# xmcd
#
# Track frame offsets: 
#        150
#        17400
#        34200
#        63160
#        71550
#        92100
#        111300
#        138600
#        165823
#        181388
#        198263
#
# Disc length: 2888 seconds
#
# Revision: 1
# Processed by: cddbd v1.5.2PL0 Copyright (c) Steve Scherf et al.
# Submitted via: ExactAudioCopy v0.90b4
#
DISCID=8e0b460b
DTITLE=김용우 - 질꼬냉이
DYEAR=2003
DGENRE=New Age
TTITLE0=용천검
TTITLE1=옹헤야
TTITLE2=질꼬냉이
TTITLE3=개고리타령
TTITLE4=모리화
TTITLE5=임진강
TTITLE6=소란부시
TTITLE7=이별가
TTITLE8=진진진
TTITLE9=나홀로 길을 걷네
TTITLE10=영빈가
EXTD=YEAR: 2003
EXTT0=
EXTT1=
EXTT2=
EXTT3=
EXTT4=
EXTT5=
EXTT6=
EXTT7=
EXTT8=
EXTT9=
EXTT10=
PLAYORDER=
